<svg width="23" height="23" viewBox="0 0 23 23" fill="none" xmlns="http://www.w3.org/2000/svg">
<path d="M10.8936 0.439342C11.4793 -0.146445 12.4289 -0.146445 13.0146 0.439342L22.5605 9.98524C23.1463 10.571 23.1463 11.5206 22.5605 12.1063L13.0146 21.6522C12.4289 22.238 11.4793 22.238 10.8936 21.6522C10.3078 21.0664 10.3078 20.1169 10.8936 19.5311L17.8789 12.5458L1.5 12.5458C0.671571 12.5458 -2.07615e-06 11.8742 -1.93131e-06 11.0458C-1.78646e-06 10.2174 0.671571 9.54579 1.5 9.54579L17.8789 9.54579L10.8936 2.56044C10.3078 1.97465 10.3078 1.02513 10.8936 0.439342Z" fill="white"/>
</svg>
